# xmcd CD database file
#
# Track frame offsets:
#	150
#	21502
#	38745
#	60580
#
# Disc length: 1092 seconds
#
# Revision: 2
# Processed by: cddbd v1.5.1PL0 Copyright (c) Steve Scherf et al.
# Submitted via: CDex 1.51
#
DISCID=2d044204
DTITLE=GARNET CROW - 二人のロケット
DYEAR=2000
DGENRE=J-pop
TTITLE0=二人のロケット
TTITLE1=未完成な音色
TTITLE2=二人のロケット〜cool smooth ver.〜
TTITLE3=二人のロケット〜Instrumental〜
EXTD=YEAR: 2000
EXTT0=
EXTT1=
EXTT2=
EXTT3=
PLAYORDER=
